# xmcd
#
# Track frame offsets: 
#        150
#        16710
#        32698
#        48311
#        63026
#        90903
#        107093
#        125429
#        143134
#        164735
#        189578
#
# Disc length: 2820 seconds
#
# Revision: 3
# Processed by: cddbd v1.5.2PL0 Copyright (c) Steve Scherf et al.
# Submitted via: ExactAudioCopy v0.99pb4
#
DISCID=860b020b
DTITLE=Drive-By Truckers - A Blessing and a Curse
DYEAR=2006
DGENRE=Alternative Rock
TTITLE0=Feb 14
TTITLE1=Gravity's Gone
TTITLE2=Easy on Yourself
TTITLE3=Aftermath USA
TTITLE4=Goodbye
TTITLE5=Daylight
TTITLE6=Wednesday
TTITLE7=Little Bonnie
TTITLE8=Space City
TTITLE9=A Blessing and a Curse
TTITLE10=A World of Hurt
EXTD=YEAR: 2006
EXTT0=
EXTT1=
EXTT2=
EXTT3=
EXTT4=
EXTT5=
EXTT6=
EXTT7=
EXTT8=
EXTT9=
EXTT10=
PLAYORDER=
